<svg width="365" height="250" viewBox="0 0 365 250" fill="none"
    xmlns="http://www.w3.org/2000/svg">
    <path d="M102.255 1.53581L26.2665 0.209429C19.6401 0.0937645 13.3354 5.29097 12.1846 11.8177L-0.91622 86.116C-2.06706 92.6427 2.37177 98.0274 8.99818 98.1431L84.9866 99.4695C91.613 99.5851 97.9177 94.3879 99.0685 87.8612L112.169 13.5629C113.32 7.0362 108.881 1.65148 102.255 1.53581Z" fill="#0E1111"/>
    <path d="M66.3443 43.0638C69.0464 45.2445 72.6015 46.5276 76.6856 46.5276L78.0552 38.7605C77.2822 38.7606 76.5253 38.681 75.7971 38.5227L74.719 44.6365C70.6353 44.6365 67.0807 43.3534 64.3777 41.1729L61.5828 57.0233C60.1847 64.9525 52.5475 71.3799 44.5251 71.3799C41.5318 71.3799 38.9073 70.4855 36.8666 68.9516C39.0344 71.6172 42.4214 73.2708 46.4912 73.2708C54.5141 73.2708 62.1516 66.8434 63.5498 58.9139L66.3446 43.0638L66.3443 43.0638ZM70.5633 35.2278C69.2861 33.5245 68.6385 31.3233 68.8435 28.8899L69.0197 27.8909L66.8401 27.8909C66.8433 30.9838 68.2487 33.6262 70.5633 35.2278ZM43.0136 62.867C42.3336 61.7249 42.1037 60.3278 42.3592 58.8912C42.9986 55.2647 46.4919 52.3243 50.162 52.3243C50.846 52.3241 51.5077 52.4276 52.1234 52.632L53.5236 44.6913C52.78 44.5881 52.019 44.5443 51.2477 44.5604L50.1578 50.7411C49.5416 50.5366 48.8797 50.4328 48.1954 50.4335C44.5253 50.4335 41.0322 53.3736 40.3927 57.0006C39.9405 59.5651 41.0359 61.7854 43.0136 62.867Z" fill="#FF004F"/>
    <path d="M64.3776 41.1727C67.0806 43.3532 70.6352 44.6363 74.719 44.6363L75.797 38.5225C73.6021 38.0426 71.7917 36.8653 70.5632 35.2278C68.2485 33.626 66.8433 30.9836 66.84 27.8909L61.1148 27.8909L55.6446 58.9136C54.994 62.5302 51.5079 65.4586 47.8456 65.4586C45.6875 65.4586 43.9496 64.4419 43.013 62.867C41.0355 61.7854 39.9401 59.5649 40.3922 57.0007C41.0317 53.3741 44.5248 50.4336 48.1949 50.4336C48.8981 50.4336 49.5568 50.5418 50.1574 50.7412L51.2472 44.5606C43.3373 44.7215 35.8765 51.0861 34.4962 58.9138C33.8072 62.8212 34.7611 66.3635 36.8666 68.9518C38.9073 70.4855 41.5318 71.38 44.5251 71.38C52.5477 71.38 60.1848 64.9523 61.5829 57.0233L64.3778 41.1727L64.3776 41.1727Z" fill="black"/>
    <path d="M75.797 38.5224L76.0885 36.8693C74.0324 36.8724 72.1175 36.3034 70.5633 35.2275C71.8125 36.898 73.6424 38.0498 75.797 38.5224ZM66.84 27.8908C66.8398 27.5952 66.852 27.2977 66.8768 26.999L67.053 26L59.148 26L53.6778 57.023C53.0276 60.6392 49.5417 63.5676 45.8791 63.5676C44.8038 63.5676 43.8331 63.3153 43.013 62.8671C43.9496 64.4419 45.6876 65.4584 47.8457 65.4584C51.5076 65.4584 54.9941 62.5303 55.6446 58.9137L61.1148 27.8908L66.84 27.8908ZM51.2476 44.5605L51.5579 42.8006C50.9131 42.7114 50.255 42.6666 49.5882 42.6669C41.565 42.6668 33.9278 49.0945 32.5298 57.023C31.6533 61.9938 33.437 66.3745 36.8669 68.9514C34.7613 66.3633 33.8075 62.8208 34.4965 58.9135C35.8767 51.0861 43.3374 44.7214 51.2476 44.5605Z" fill="#00F2EA"/>
    <rect width="100" height="100" rx="16" transform="matrix(0.999848 0.0174524 -0.173648 0.984808 140.618 0)" fill="white"/>
    <g clip-path="url(#clip0_170_958)">
        <path d="M188.973 31.0097C195.364 31.2319 196.111 31.2853 198.586 31.4815C200.886 31.6623 202.012 32.0869 202.74 32.4333C203.703 32.8889 204.326 33.4244 204.87 34.26C205.42 35.105 205.659 35.8933 205.704 36.9868C205.741 37.8139 205.694 39.0603 204.992 41.3207C204.232 43.7719 203.998 44.507 201.791 50.6977C199.581 56.8974 199.292 57.6306 198.31 60.0649C197.4 62.3273 196.571 63.5373 195.954 64.3417C195.139 65.4053 194.338 66.1666 193.219 66.9444C192.087 67.7309 191.115 68.2019 189.855 68.5802C188.901 68.8682 187.494 69.2047 185.132 69.2235C182.571 69.2446 181.804 69.2455 175.422 69.0237C169.031 68.8016 168.284 68.7481 165.809 68.552C163.509 68.3711 162.383 67.9466 161.655 67.6001C160.692 67.1446 160.07 66.6091 159.525 65.7735C158.975 64.9285 158.736 64.1402 158.691 63.0467C158.654 62.2195 158.701 60.9732 159.403 58.7127C160.163 56.2616 160.397 55.5264 162.604 49.3358C164.814 43.1361 165.103 42.4029 166.085 39.9686C166.995 37.7062 167.824 36.4962 168.442 35.6918C169.256 34.6282 170.057 33.8668 171.176 33.0891C172.308 32.3025 173.28 31.8316 174.54 31.4533C175.494 31.1653 176.901 30.8288 179.263 30.8099C181.815 30.7885 182.582 30.7876 188.973 31.0097ZM190.462 26.8313C183.968 26.6056 183.146 26.6045 180.556 26.6247C177.976 26.6451 176.086 26.9832 174.369 27.5016C172.577 28.045 170.96 28.7871 169.171 30.0371C167.376 31.2777 166.101 32.5456 164.941 34.0469C163.826 35.5039 162.814 37.1755 161.823 39.637C160.826 42.1166 160.517 42.9042 158.271 49.2036C156.026 55.503 155.773 56.2925 155.003 58.7709C154.236 61.2401 154.043 62.9494 154.108 64.4382C154.179 65.9914 154.53 67.3158 155.407 68.6493C156.275 69.9825 157.327 70.8266 158.687 71.4703C160.006 72.0942 161.602 72.5534 164.105 72.7505C166.617 72.9479 167.42 73.0034 173.914 73.2291C180.408 73.4547 181.23 73.4558 183.82 73.4357C186.4 73.4152 188.29 73.0771 190.007 72.5587C191.787 72.0241 193.407 71.2729 195.193 70.032C196.978 68.791 198.263 67.5235 199.413 66.0218C200.528 64.5649 201.54 62.8933 202.531 60.4318C203.525 57.9612 203.834 57.1737 206.08 50.8742C208.325 44.5748 208.578 43.7853 209.348 41.307C210.115 38.8377 210.308 37.1284 210.243 35.6396C210.203 34.0783 209.853 32.7539 208.975 31.4204C208.107 30.0872 207.055 29.2432 205.696 28.5995C204.376 27.9755 202.78 27.5163 200.278 27.3192C197.759 27.1124 196.956 27.057 190.462 26.8313Z" fill="#000100"/>
        <path d="M186.44 38.1157C179.656 37.88 172.25 43.0274 169.904 49.6077C167.558 56.1881 171.159 61.718 177.942 61.9538C184.726 62.1895 192.132 57.0422 194.478 50.4618C196.824 43.8814 193.223 38.3515 186.44 38.1157ZM179.435 57.7663C175.034 57.6133 172.699 54.0269 174.221 49.7578C175.743 45.4887 180.546 42.1503 184.947 42.3033C189.348 42.4562 191.683 46.0426 190.161 50.3117C188.64 54.5808 183.836 57.9192 179.435 57.7663Z" fill="#000100"/>
        <path d="M202.249 38.1881C201.7 39.7289 199.968 40.9259 198.389 40.871C196.8 40.8158 195.966 39.5205 196.512 37.9887C197.061 36.4478 198.793 35.2509 200.373 35.3057C201.952 35.3606 202.795 36.6563 202.249 38.1881Z" fill="#000100"/>
    </g>
    <rect width="100" height="100" rx="16" transform="matrix(0.999848 0.0174524 -0.173648 0.984808 266.967 0)" fill="#2D3038"/>
    <g clip-path="url(#clip1_170_958)">
        <path d="M320.142 48.7344C319.97 48.6314 319.793 48.5319 319.613 48.4363C321.596 41.8233 319.225 37.9155 312.996 37.6598C312.968 37.6587 312.94 37.6577 312.912 37.6567C309.178 37.527 305.521 38.9651 302.607 41.7121L305.226 44.116C307.403 42.0641 309.803 41.694 311.454 41.7514C311.473 41.752 311.492 41.7527 311.511 41.7535C313.562 41.8377 314.906 42.4713 315.507 43.6367C315.944 44.4852 316.027 45.6396 315.758 47.0834C314.042 46.7196 312.104 46.5587 309.956 46.6027C303.902 46.7281 298.89 49.9533 297.483 54.6281C296.769 56.9994 297.259 59.0777 298.862 60.48C300.217 61.6655 302.282 62.2939 304.677 62.2511C307.84 62.1939 310.685 61.1297 313.132 59.0881C314.991 57.5377 316.544 55.4988 317.833 52.9065C319.003 53.8239 319.693 55.0016 319.811 56.3926C320.01 58.7572 318.706 62.5862 314.375 65.5943C310.58 68.2294 306.769 69.2941 301.632 69.1525C295.963 68.9141 292.295 66.9967 290.729 63.4534C289.263 60.1354 289.572 55.4274 291.648 49.4599C293.825 43.4959 296.839 38.8818 300.606 35.7458C304.629 32.3968 309.557 30.7781 315.255 30.9346C320.965 31.1749 324.705 33.1034 326.372 36.667C327.189 38.4146 327.501 40.5874 327.32 43.1018L331.715 42.2004C331.95 39.1058 331.543 36.4179 330.488 34.1639C328.351 29.5952 323.722 27.1313 316.729 26.8405L316.701 26.8396C309.689 26.6434 303.495 28.74 298.293 33.0708C293.663 36.9247 290.038 42.385 287.516 49.2998L287.51 49.3161L287.505 49.3324C285.095 56.2511 284.787 61.8269 286.589 65.9043C288.614 70.4861 293.18 72.9567 300.158 73.2467L300.186 73.2477C306.421 73.422 311.368 71.9948 316.227 68.6202C322.584 64.2053 324.488 58.4607 324.186 54.883C323.97 52.3174 322.571 50.1911 320.142 48.7344ZM305.912 58.1548C303.26 58.2065 300.962 56.9799 301.693 54.5493C302.236 52.7471 304.369 50.7893 308.732 50.6989C309.231 50.6885 309.717 50.6918 310.189 50.7082C311.742 50.7622 313.144 50.9591 314.365 51.2852C311.744 57.2387 308.508 58.1077 305.912 58.1548Z" fill="white"/>
    </g>
    <rect width="115.014" height="116.731" rx="25.7495" transform="matrix(0.999848 0.0174524 -0.173648 0.984808 -22.7299 132.303)" fill="#0E1111"/>
    <g clip-path="url(#clip2_170_958)">
        <path d="M44.2027 171.702L50.9272 171.936L30.4302 187.713L39.8123 210.478L26.2801 210.008L20.4728 196.197L3.55354 209.218L-3.17497 208.984L18.7486 192.108L9.66573 170.502L23.5415 170.984L28.7422 183.604L44.2027 171.702ZM29.5278 206.168L33.2538 206.297L20.1982 174.613L16.1997 174.474L29.5278 206.168Z" fill="white"/>
    </g>
    <rect width="118.002" height="118.002" rx="16" transform="matrix(0.999848 0.0174524 -0.173648 0.984808 132.758 131)" fill="white"/>
    <g clip-path="url(#clip3_170_958)">
        <path d="M210.308 167.54L169.532 166.123C168.595 166.09 167.568 166.42 166.677 167.039C165.785 167.659 165.103 168.517 164.779 169.426L150.679 208.981C150.355 209.89 150.416 210.774 150.85 211.44C151.283 212.105 152.053 212.497 152.989 212.53L193.766 213.947C194.703 213.98 195.73 213.65 196.621 213.03C197.512 212.411 198.195 211.553 198.519 210.644L212.619 171.088C212.943 170.18 212.881 169.295 212.448 168.63C212.015 167.965 211.245 167.572 210.308 167.54ZM166.167 206.029L158.974 205.779L166.874 183.616L174.067 183.866L166.167 206.029ZM171.561 180.67C170.746 180.637 170.035 180.37 169.517 179.904C168.999 179.437 168.697 178.792 168.649 178.048C168.601 177.305 168.81 176.498 169.249 175.727C169.687 174.957 170.336 174.26 171.114 173.722C171.892 173.184 172.763 172.831 173.618 172.706C174.473 172.582 175.273 172.691 175.918 173.022C176.562 173.352 177.023 173.889 177.24 174.563C177.458 175.238 177.423 176.02 177.14 176.811C176.959 177.341 176.669 177.864 176.288 178.347C175.907 178.831 175.442 179.266 174.921 179.626C174.401 179.986 173.835 180.264 173.257 180.443C172.68 180.622 172.103 180.699 171.561 180.67ZM192.671 206.969L185.482 206.719L189.798 194.612C191.071 191.041 189.899 189.884 187.879 189.814C185.746 189.74 183.097 191.227 181.955 194.431L177.672 206.448L170.479 206.198L178.38 184.032L185.297 184.273L184.202 187.344L184.295 187.347C185.476 186.008 188.738 183.762 192.449 183.891C196.462 184.031 199.974 186.492 197.562 193.26L192.671 206.969Z" fill="#0A66C2"/>
    </g>
    <rect width="116.534" height="116.534" rx="16" transform="matrix(0.999848 0.0174524 -0.173648 0.984808 290.977 132.471)" fill="white"/>
    <g clip-path="url(#clip4_170_958)">
        <path d="M370.47 192.345C376.412 175.676 367.298 161.679 350.115 161.081C332.931 160.484 314.183 173.513 308.241 190.183C303.196 204.337 309.008 216.564 321.397 220.297L328.552 200.227L322.136 200.004L325.424 190.78L331.84 191.003L333.256 187.028C336.918 176.755 343.408 172.16 353.806 172.522C355.777 172.59 359.045 173.084 360.303 173.506L357.323 181.867C356.615 181.767 355.353 181.685 353.768 181.63C348.667 181.453 346.027 183.259 344.29 188.133L343.127 191.395L353.29 191.748L348.256 200.911L339.839 200.619L332.446 221.357C348.497 220.087 364.971 207.777 370.471 192.345L370.47 192.345Z" fill="#0866FF"/>
        <path d="M348.255 200.911L353.289 191.748L343.125 191.395L344.288 188.133C346.026 183.259 348.665 181.453 353.767 181.63C355.351 181.685 356.614 181.767 357.321 181.867L360.301 173.506C359.044 173.083 355.776 172.59 353.804 172.522C343.407 172.16 336.917 176.755 333.255 187.028L331.838 191.003L325.423 190.78L322.135 200.004L328.55 200.227L321.396 220.297C323.597 220.96 326.004 221.357 328.595 221.447C329.871 221.491 331.156 221.459 332.444 221.357L339.836 200.619L348.253 200.911L348.255 200.911Z" fill="white"/>
    </g>
    <defs>
        <clipPath id="clip0_170_958">
            <rect width="48" height="48" fill="white" transform="matrix(0.996665 0.034637 -0.344632 0.966816 166.542 26)"/>
        </clipPath>
        <clipPath id="clip1_170_958">
            <rect width="48" height="48" fill="white" transform="matrix(0.996665 0.034637 -0.344632 0.966816 292.542 26)"/>
        </clipPath>
        <clipPath id="clip2_170_958">
            <rect width="48" height="48" fill="white" transform="matrix(0.996665 0.034637 -0.344632 0.966816 8.9847 166.751)"/>
        </clipPath>
        <clipPath id="clip3_170_958">
            <rect width="48" height="48" fill="white" transform="matrix(0.996665 0.034637 -0.344632 0.966816 166 166)"/>
        </clipPath>
        <clipPath id="clip4_170_958">
            <rect width="62.4373" height="62.4373" fill="white" transform="matrix(0.996665 0.034637 -0.344632 0.966816 319 160)"/>
        </clipPath>
    </defs>
</svg>
