<svg xmlns="http://www.w3.org/2000/svg" width="401" height="550" fill="none"><rect width="100" height="100" x="5.791" y="40" fill="url(#a)" rx="20"/><rect width="100" height="102" x="5.791" y="167" fill="#111F4F" rx="12"/><path fill="#fff" d="M45.815 204.684V231h-4.608v-26.316zm8.1 26.316h-4.787l9.504-26.316h4.716L72.852 231h-4.86l-2.124-6.084H56.04zm6.48-18.468-2.987 8.496h7.128l-3.024-8.496c-.216-.684-.468-1.476-.54-2.016a18 18 0 0 1-.576 2.016M84.333 252.667v-5.334h5.334v5.334zm0 5.333v-1.778h-1.777q-.734 0-1.256-.522a1.71 1.71 0 0 1-.522-1.256v-1.777H79v-1.778h1.778v-1.778H79v-1.778h1.778v-1.777q0-.734.522-1.256a1.71 1.71 0 0 1 1.256-.522h1.777V242h1.778v1.778h1.778V242h1.778v1.778h1.777q.734 0 1.256.522t.522 1.256v1.777H95v1.778h-1.778v1.778H95v1.778h-1.778v1.777q0 .734-.522 1.256a1.71 1.71 0 0 1-1.256.522h-1.777V258h-1.778v-1.778H86.11V258zm7.111-3.556v-8.888h-8.888v8.888z"/><rect width="100" height="102" x="5.791" y="296" fill="#23292F" rx="12"/><path fill="#fff" d="M86.083 313h12.108l-25.198 24.949c-9.125 9.03-23.92 9.03-33.05 0L14.734 313h12.118l19.143 18.952c5.804 5.72 15.125 5.72 20.929 0zM26.697 382.375H14.581l25.361-25.103c9.125-9.03 23.92-9.03 33.052 0l25.36 25.103H86.248l-19.308-19.106c-5.803-5.72-15.124-5.72-20.928 0z"/><rect width="100" height="100" x="5.791" y="425" fill="url(#b)" rx="20"/><rect width="100" height="100" x="148.511" y="80" fill="url(#c)" rx="20"/><rect width="100" height="102" x="148.511" y="202" fill="#F7931A" rx="12"/><path fill="#fff" fill-rule="evenodd" d="M219.38 248.078c.863-5.771-3.53-8.873-9.538-10.942l1.949-7.817-4.758-1.186-1.897 7.612a201 201 0 0 0-3.813-.898l1.911-7.661-4.755-1.186-1.95 7.814a148 148 0 0 1-3.039-.714l.006-.024-6.562-1.639-1.266 5.082s3.53.81 3.456.859c1.927.481 2.275 1.757 2.217 2.768l-2.22 8.905c.133.034.305.083.495.159l-.138-.034h-.001q-.176-.045-.364-.09l-3.112 12.475c-.235.585-.833 1.464-2.18 1.13.048.069-3.459-.863-3.459-.863L178 267.275l6.192 1.544q1.017.256 2.012.517.695.182 1.381.358l-1.969 7.907 4.753 1.185 1.95-7.822c1.298.352 2.558.677 3.792.984l-1.944 7.786 4.759 1.185 1.969-7.891c8.114 1.535 14.215.916 16.783-6.423 2.07-5.909-.103-9.317-4.371-11.54 3.109-.717 5.451-2.762 6.075-6.986l-.001-.001zm-10.872 15.245c-1.349 5.422-9.834 3.18-13.717 2.155-.349-.092-.661-.175-.927-.241l2.613-10.475c.324.081.72.17 1.169.271h.001c4.016.901 12.244 2.748 10.862 8.29zm-10.056-13.152c3.237.864 10.298 2.749 11.528-2.178h.001c1.255-5.04-5.607-6.559-8.959-7.301-.377-.084-.709-.157-.981-.225l-2.369 9.5q.337.085.78.204" clip-rule="evenodd"/><rect width="100" height="102" x="148.511" y="326" fill="#4A90E2" rx="12"/><circle cx="171.557" cy="387.146" r="4.618" fill="#fff"/><path fill="#fff" fill-rule="evenodd" d="M199.071 373.486h.385c2.307.192 4.136 2.117 4.232 4.424 0 2.597-2.021 4.618-4.617 4.618s-4.618-2.118-4.618-4.618c0-3.271-1.057-4.521-4.618-4.521s-4.618 1.25-4.618 4.618v.289c-.096 2.307-2.118 4.232-4.521 4.232-2.596 0-4.618-2.118-4.618-4.618a4.517 4.517 0 0 1 4.136-4.521h.386c4.039 0 4.617-.864 4.617-4.521 0-2.597 2.118-4.618 4.618-4.618 2.596 0 4.618 2.118 4.618 4.618 0 3.657.579 4.618 4.618 4.618m22.896-4.618c0-2.597 2.118-4.618 4.617-4.618s4.522 2.021 4.522 4.425c0 2.596-2.118 4.618-4.618 4.618-3.561 0-4.618 1.25-4.618 4.617v.29c-.096 2.403-2.118 4.328-4.521 4.328h-.097c-3.464.097-4.521 1.347-4.521 4.618v.386c-.096 2.307-2.118 4.232-4.521 4.232-2.597 0-4.618-2.118-4.618-4.618 0-2.307 1.829-4.232 4.136-4.521.096-.097.289-.097.482-.097 3.943 0 4.618-.864 4.618-4.425v-.096a4.515 4.515 0 0 1 4.135-4.521h.386c4.039 0 4.618-.961 4.618-4.618" clip-rule="evenodd"/><rect width="100" height="100" x="148.511" y="450" fill="url(#d)" rx="20"/><rect width="100" height="100" x="292.507" fill="url(#e)" rx="20"/><rect width="100" height="102" x="292.507" y="132" fill="#50AF95" rx="12"/><path fill="#fff" fill-rule="evenodd" d="M349.974 186.235c-.389.029-2.398.149-6.88.149-3.565 0-6.096-.107-6.984-.149-13.777-.606-24.06-3.004-24.06-5.875s10.283-5.267 24.06-5.882v9.369c.901.065 3.48.217 7.045.217 4.278 0 6.42-.178 6.806-.214v-9.366c13.748.613 24.008 3.011 24.008 5.876s-10.257 5.263-24.008 5.872zm0-12.72v-8.384h19.186v-12.785h-52.236v12.785h19.183v8.381c-15.592.716-27.317 3.805-27.317 7.506s11.725 6.786 27.317 7.505v26.867h13.864v-26.876c15.556-.717 27.262-3.802 27.262-7.5s-11.696-6.783-27.262-7.502z" clip-rule="evenodd"/><rect width="100" height="102" x="293" y="270" fill="#EDF0F4" rx="12"/><path fill="#343434" d="m343.357 289-.437 1.486v43.122l.437.436 20.016-11.831z"/><path fill="#8C8C8C" d="m343.357 289-20.016 33.213 20.016 11.831V289"/><path fill="#3C3C3B" d="m343.357 337.834-.246.301v15.36l.246.72 20.029-28.207z"/><path fill="#8C8C8C" d="M343.357 354.215v-16.381l-20.016-11.826z"/><path fill="#141414" d="m343.357 334.044 20.016-11.831-20.016-9.099z"/><path fill="#393939" d="m323.341 322.213 20.016 11.831v-20.93z"/><rect width="100" height="100" x="292.507" y="408" fill="url(#f)" rx="20"/><defs><linearGradient id="a" x1="55.791" x2="55.791" y1="40" y2="140" gradientUnits="userSpaceOnUse"><stop stop-color="#0E1111"/><stop offset="1" stop-color="#001A3A"/></linearGradient><linearGradient id="b" x1="55.791" x2="55.791" y1="425" y2="525" gradientUnits="userSpaceOnUse"><stop stop-color="#0E1111"/><stop offset="1" stop-color="#001A3A"/></linearGradient><linearGradient id="c" x1="198.511" x2="198.511" y1="80" y2="180" gradientUnits="userSpaceOnUse"><stop stop-color="#0E1111"/><stop offset="1" stop-color="#001A3A"/></linearGradient><linearGradient id="d" x1="198.511" x2="198.511" y1="450" y2="550" gradientUnits="userSpaceOnUse"><stop stop-color="#0E1111"/><stop offset="1" stop-color="#001A3A"/></linearGradient><linearGradient id="e" x1="342.507" x2="342.507" y1="0" y2="100" gradientUnits="userSpaceOnUse"><stop stop-color="#0E1111"/><stop offset="1" stop-color="#001A3A"/></linearGradient><linearGradient id="f" x1="342.507" x2="342.507" y1="408" y2="508" gradientUnits="userSpaceOnUse"><stop stop-color="#0E1111"/><stop offset="1" stop-color="#001A3A"/></linearGradient></defs></svg>