<svg xmlns="http://www.w3.org/2000/svg" width="48" height="48" viewBox="0 0 48 48" fill="none">
    <mask id="mask0_67_5660" style="mask-type:alpha" maskUnits="userSpaceOnUse" x="0" y="0" width="48" height="48">
        <rect width="48" height="48" fill="#D9D9D9"/>
    </mask>
    <g mask="url(#mask0_67_5660)">
        <path d="M7.9502 42V36H14.1502L9.0502 19.3C8.1502 18.8 7.40853 18.0667 6.8252 17.1C6.24186 16.1334 5.9502 15.1 5.9502 14C5.9502 12.3334 6.53353 10.9167 7.7002 9.75005C8.86686 8.58338 10.2835 8.00005 11.9502 8.00005C13.2502 8.00005 14.4085 8.37505 15.4252 9.12505C16.4419 9.87505 17.1502 10.8334 17.5502 12H23.9502V10C23.9502 9.43338 24.1419 8.95838 24.5252 8.57505C24.9085 8.19171 25.3835 8.00005 25.9502 8.00005C26.2502 8.00005 26.5419 8.06671 26.8252 8.20005C27.1085 8.33338 27.3502 8.53338 27.5502 8.80005L30.9502 5.60005C31.2502 5.30005 31.6085 5.10838 32.0252 5.02505C32.4419 4.94171 32.8502 5.00005 33.2502 5.20005L41.0502 8.80005C41.4502 9.00005 41.7252 9.29171 41.8752 9.67505C42.0252 10.0584 42.0169 10.4334 41.8502 10.8C41.6502 11.2 41.3585 11.4584 40.9752 11.575C40.5919 11.6917 40.2169 11.6667 39.8502 11.5L32.6502 8.20005L27.9502 12.6V15.4L32.6502 19.7L39.8502 16.4C40.2169 16.2334 40.6002 16.2167 41.0002 16.35C41.4002 16.4834 41.6835 16.7334 41.8502 17.1C42.0502 17.5 42.0669 17.8834 41.9002 18.25C41.7335 18.6167 41.4502 18.9 41.0502 19.1L33.2502 22.8C32.8502 23 32.4419 23.0584 32.0252 22.975C31.6085 22.8917 31.2502 22.7 30.9502 22.4L27.5502 19.2C27.3502 19.4 27.1085 19.5834 26.8252 19.75C26.5419 19.9167 26.2502 20 25.9502 20C25.3835 20 24.9085 19.8084 24.5252 19.425C24.1419 19.0417 23.9502 18.5667 23.9502 18V16H17.5502C17.4502 16.2667 17.3419 16.5167 17.2252 16.75C17.1085 16.9834 16.9502 17.2334 16.7502 17.5L26.7502 36H33.9502V42H7.9502ZM11.9502 16C12.5169 16 12.9919 15.8084 13.3752 15.425C13.7585 15.0417 13.9502 14.5667 13.9502 14C13.9502 13.4334 13.7585 12.9584 13.3752 12.575C12.9919 12.1917 12.5169 12 11.9502 12C11.3835 12 10.9085 12.1917 10.5252 12.575C10.1419 12.9584 9.9502 13.4334 9.9502 14C9.9502 14.5667 10.1419 15.0417 10.5252 15.425C10.9085 15.8084 11.3835 16 11.9502 16Z" fill="#1A1A1A"/>
    </g>
</svg>
