<svg xmlns="http://www.w3.org/2000/svg" width="48" height="48" fill="none"><mask id="a" width="48" height="48" x="0" y="0" maskUnits="userSpaceOnUse" style="mask-type:alpha"><path fill="#D9D9D9" d="M0 0h48v48H0z"/></mask><g mask="url(#a)"><path fill="#FAFAF5" d="M7.95 42v-6h6.2l-5.1-16.7q-1.35-.75-2.225-2.2T5.95 14q0-2.5 1.75-4.25T11.95 8q1.95 0 3.475 1.125T17.55 12h6.4v-2q0-.85.575-1.425T25.95 8q.45 0 .875.2t.725.6l3.4-3.2q.45-.45 1.075-.575a1.86 1.86 0 0 1 1.225.175l7.8 3.6q.6.3.825.875T41.85 10.8q-.3.6-.875.775a1.55 1.55 0 0 1-1.125-.075l-7.2-3.3-4.7 4.4v2.8l4.7 4.3 7.2-3.3q.55-.25 1.15-.05t.85.75q.3.6.05 1.15t-.85.85l-7.8 3.7q-.6.3-1.225.175a2.06 2.06 0 0 1-1.075-.575l-3.4-3.2q-.3.3-.725.55t-.875.25q-.85 0-1.425-.575-.575-.574-.575-1.425v-2h-6.4q-.15.4-.325.75a5 5 0 0 1-.475.75l10 18.5h7.2v6zm4-26q.85 0 1.425-.575T13.95 14t-.575-1.425T11.95 12t-1.425.575T9.95 14t.575 1.425T11.95 16"/></g></svg>